<svg xmlns="http://www.w3.org/2000/svg" viewBox="0 0 500 500"><g id="freepik--Shadow--inject-98"><ellipse id="freepik--path--inject-98" cx="250" cy="416.24" rx="193.89" ry="11.32" style="fill:#f5f5f5"></ellipse></g><g id="freepik--Device--inject-98"><rect x="284.26" y="135" width="26.67" height="1" style="fill:#407BFF"></rect><rect x="317.6" y="135" width="11" height="1" style="fill:#407BFF"></rect><path d="M397.61,151.09l-19,252.55a13.23,13.23,0,0,1-1.65,5.43l0,0a13.82,13.82,0,0,1-11.88,7.14H242.26a11.56,11.56,0,0,1-11.65-12.6l19-252.55a13.86,13.86,0,0,1,13.55-12.59H386a11.51,11.51,0,0,1,10.8,7.14l0,0A11.88,11.88,0,0,1,397.61,151.09Z" style="fill:#407BFF"></path><polygon points="370.05 138.5 333.71 138.5 277.23 416.24 313.56 416.24 370.05 138.5" style="fill:#fff;opacity:0.05"></polygon><polygon points="325.51 138.5 315.29 138.5 258.8 416.24 269.02 416.24 325.51 138.5" style="fill:#fff;opacity:0.05"></polygon><path d="M397.61,151.09l-19,252.55a13.23,13.23,0,0,1-1.65,5.43l0,0c-2,2.5-5.08.59-4.65-5.24l19-253c.44-5.82,3.78-7.73,5.43-5.23l0,0A11.88,11.88,0,0,1,397.61,151.09Z" style="fill:#263238;opacity:0.2"></path><path d="M311.59,269.65a18.56,18.56,0,0,1-18.74-20.26l1.45-19.34a.72.72,0,0,1,1.43.11l-1.46,19.34a17.15,17.15,0,0,0,17.32,18.73,20.67,20.67,0,0,0,20.25-18.84l1.46-19.34a.71.71,0,0,1,1.42.11l-1.45,19.34A22.13,22.13,0,0,1,311.59,269.65Z" style="fill:#fff"></path><path d="M312.13,261.81h0a11.33,11.33,0,0,1-11.43-12.36l1.45-19.34a13.6,13.6,0,0,1,13.29-12.37h0a11.35,11.35,0,0,1,11.44,12.37l-1.46,19.34A13.59,13.59,0,0,1,312.13,261.81Z" style="fill:#fff"></path><path d="M310.88,279.24h-.06a.71.71,0,0,1-.66-.76l.72-9.59a.72.72,0,0,1,1.43.11l-.72,9.58A.71.71,0,0,1,310.88,279.24Z" style="fill:#fff"></path><path d="M315.15,280h-8.56a1.43,1.43,0,0,1,0-2.86h8.56a1.43,1.43,0,1,1,0,2.86Z" style="fill:#fff"></path><path d="M310.1,296.06a45.17,45.17,0,0,1-45.58-49.26c2-26.56,25.24-48.17,51.81-48.17a45.17,45.17,0,0,1,45.58,49.26C359.92,274.45,336.68,296.06,310.1,296.06Zm6.23-96.93c-26.32,0-49.34,21.4-51.31,47.71a44.67,44.67,0,0,0,45.08,48.72c26.32,0,49.34-21.4,51.32-47.71a44.68,44.68,0,0,0-45.09-48.72Z" style="fill:#fff;opacity:0.2"></path><ellipse cx="313.22" cy="247.35" rx="43.06" ry="39.94" transform="translate(-83.96 286.48) rotate(-43.92)" style="fill:#fff;opacity:0.2"></ellipse><path d="M310.33,286.08a35.48,35.48,0,0,1-35.85-38.76c1.61-21.34,20.28-38.71,41.62-38.71A35.46,35.46,0,0,1,352,247.37h0C350.35,268.72,331.68,286.08,310.33,286.08Zm5.77-76.76c-21,0-39.33,17.07-40.9,38.05a34.75,34.75,0,0,0,35.13,38c21,0,39.33-17.07,40.91-38.05h0a34.75,34.75,0,0,0-35.14-38Z" style="fill:#fff"></path><path d="M297.54,342.25c-5.34,0-10.25-5.31-15-10.45a83.4,83.4,0,0,0-6.35-6.39c-3.8,2.77-9.3,5.71-14.28,1.14a2.17,2.17,0,0,1-.74-1.65,2.44,2.44,0,0,1,1-1.77h0c5.64-4.55,10.7-1.62,14.09,1.15,2.42-1.83,4.92-4.16,7.34-6.41,5.81-5.41,11.83-11,17.39-10.38,2.7.3,5.05,2,7.19,5.09,9.17,13.42,18.25,10.87,27,8.41,6.59-1.85,12.81-3.6,17.93,2.41a2.07,2.07,0,0,1-.2,2.92c-6,6-11.95,4.23-18.25,2.38-8-2.35-17.11-5-28.33,8.44-2.8,3.36-5.61,5-8.57,5.11Zm-20.61-17.38a83.45,83.45,0,0,1,6.27,6.33c4.62,5,9.39,10.16,14.34,10.16h.18c2.7-.06,5.29-1.63,7.92-4.78,11.59-13.91,21-11.15,29.26-8.73,6.31,1.85,11.75,3.45,17.37-2.15a1.18,1.18,0,0,0,.15-1.71c-4.75-5.58-10.43-4-17-2.13-8.65,2.43-18.46,5.18-28-8.77-2-2.9-4.12-4.44-6.54-4.71-5.18-.58-11,4.88-16.7,10.15C281.79,320.74,279.33,323,276.93,324.87Zm-14.23-1.05a1.52,1.52,0,0,0-.62,1.11,1.22,1.22,0,0,0,.44,1c3.47,3.18,7.48,2.86,13-1.06-4.87-3.89-8.83-4.2-12.79-1Z" style="fill:#fff"></path><rect x="251.41" y="324.58" width="111.97" height="0.53" style="fill:#fff;opacity:0.2"></rect><path d="M339,154.34H301.43a3.72,3.72,0,0,1-3.76-4.05,4.42,4.42,0,0,1,4.32-4h37.6a3.73,3.73,0,0,1,2.77,1.19,3.77,3.77,0,0,1,1,2.87A4.41,4.41,0,0,1,339,154.34Zm-37-7.55a3.88,3.88,0,0,0-3.79,3.54,3.24,3.24,0,0,0,.84,2.47,3.21,3.21,0,0,0,2.39,1H339a3.88,3.88,0,0,0,3.8-3.53,3.22,3.22,0,0,0-3.23-3.5Z" style="fill:#fff"></path><path d="M301.16,408.11a6.78,6.78,0,0,1-6.85-7.41,8.1,8.1,0,0,1,7.92-7.37,6.78,6.78,0,0,1,6.85,7.41h0A8.09,8.09,0,0,1,301.16,408.11Zm1.07-14.25a7.56,7.56,0,0,0-7.4,6.88,6.39,6.39,0,0,0,1.65,4.85,6.32,6.32,0,0,0,4.68,2,7.56,7.56,0,0,0,7.4-6.88h0a6.27,6.27,0,0,0-6.33-6.84Zm6.59,6.86h0Z" style="fill:#fff"></path></g><g id="freepik--Character--inject-98"><path d="M131.89,175.78l.51.39.61.45,1.26.92c.87.6,1.75,1.2,2.66,1.77,1.81,1.16,3.66,2.27,5.56,3.3a96.24,96.24,0,0,0,11.81,5.53l1.53.58.64.25.16.08c.06,0,0,0,0,.1s-.08.11,0,.1a2.6,2.6,0,0,0,1-1.05,12.64,12.64,0,0,0,1.2-2.36,41.28,41.28,0,0,0,1.79-6c.49-2.11.88-4.36,1.22-6.48l5.23,0a44.69,44.69,0,0,1-.46,14.86,21.06,21.06,0,0,1-1.36,4.06,11.69,11.69,0,0,1-3.27,4.28,8.88,8.88,0,0,1-3.09,1.59,9.23,9.23,0,0,1-3.47.28,11.56,11.56,0,0,1-1.53-.28l-.34-.09-.22-.06-.44-.13-1.75-.51a82.67,82.67,0,0,1-13.54-5.43,72.13,72.13,0,0,1-6.39-3.62c-1-.67-2.06-1.36-3.08-2.08-.51-.37-1-.72-1.52-1.13l-.76-.6-.84-.7Z" style="fill:#b55b52"></path><path d="M131.89,175.78l.51.39.61.45,1.26.92c.87.6,1.75,1.2,2.66,1.77,1.81,1.16,3.66,2.27,5.56,3.3a96.24,96.24,0,0,0,11.81,5.53l1.53.58.64.25.16.08c.06,0,0,0,0,.1s-.08.11,0,.1a2.6,2.6,0,0,0,1-1.05,12.64,12.64,0,0,0,1.2-2.36,41.28,41.28,0,0,0,1.79-6c.49-2.11.88-4.36,1.22-6.48l5.23,0a44.69,44.69,0,0,1-.46,14.86,21.06,21.06,0,0,1-1.36,4.06,11.69,11.69,0,0,1-3.27,4.28,8.88,8.88,0,0,1-3.09,1.59,9.23,9.23,0,0,1-3.47.28,11.56,11.56,0,0,1-1.53-.28l-.34-.09-.22-.06-.44-.13-1.75-.51a82.67,82.67,0,0,1-13.54-5.43,72.13,72.13,0,0,1-6.39-3.62c-1-.67-2.06-1.36-3.08-2.08-.51-.37-1-.72-1.52-1.13l-.76-.6-.84-.7Z" style="opacity:0.2"></path><path d="M168.4,162.7l-7-1.17L161,167s-2.17,6.74,2.59,9.54l3.23-.77,3-7.33Z" style="fill:#b55b52"></path><path d="M168.4,162.7l-7-1.17L161,167s-2.17,6.74,2.59,9.54l3.23-.77,3-7.33Z" style="opacity:0.2"></path><path d="M126.46,171.73c7.57.2,13.83,6.55,17.51,10.48l-4.27,17.31s-14.74-8.64-17.08-13.37C119.06,179,123.59,171.65,126.46,171.73Z" style="fill:#407BFF"></path><path d="M123.47,404a16.31,16.31,0,0,1-3,.24.22.22,0,0,1-.21-.15.22.22,0,0,1,.07-.25c.38-.3,3.79-2.95,5-2.53a.71.71,0,0,1,.47.51,1.31,1.31,0,0,1-.22,1.16A3.69,3.69,0,0,1,123.47,404Zm-2.31-.22c2.12-.06,3.63-.45,4.11-1.07a.83.83,0,0,0,.14-.77.28.28,0,0,0-.18-.21C124.55,401.53,122.57,402.76,121.16,403.8Z" style="fill:#407BFF"></path><path d="M120.53,404.26a.23.23,0,0,1-.14,0,.2.2,0,0,1-.12-.18c0-.17-.32-4.06,1.76-4.48l.18,0c.62-.06.85.21.94.45.37,1-1.5,3.48-2.53,4.21Zm1.59-4.24c-1.34.27-1.44,2.59-1.43,3.56,1-.92,2.26-2.8,2-3.42,0,0-.08-.19-.48-.15Z" style="fill:#407BFF"></path><polygon points="110.69 403.18 120.36 403.95 125.9 382.87 116.23 382.1 110.69 403.18" style="fill:#b55b52"></polygon><path d="M120.94,402.53H110.29a.78.78,0,0,0-.78.65L108,411.61a1.47,1.47,0,0,0,1.47,1.68c3.72-.06,5.51-.28,10.2-.28,2.88,0,6.67.3,10.65.3s4.31-3.93,2.67-4.29c-7.38-1.6-8.08-3.8-10.51-5.91A2.45,2.45,0,0,0,120.94,402.53Z" style="fill:#263238"></path><polygon points="125.89 382.87 122.82 394.59 113.36 392.98 116.22 382.1 125.89 382.87" style="opacity:0.2"></polygon><path d="M138.71,232s21,66.7,13.93,93.21c-8.06,30.32-27.12,66.07-27.12,66.07l-13.34-1.77s14-38.74,20.46-68.63c7.06-32.58-31-61.17-14.6-91.88C128.19,230.17,138.71,232,138.71,232Z" style="fill:#263238"></path><polygon points="126.83 392.31 110.92 389.8 111.68 385.22 129.2 386.15 126.83 392.31" style="fill:#407BFF"></polygon><path d="M167.84,152.74c-.2.74,0,1.45.51,1.6s1-.34,1.23-1.07,0-1.45-.51-1.59S168,152,167.84,152.74Z" style="fill:#263238"></path><path d="M168.85,151.65l1.91,0S169.47,152.78,168.85,151.65Z" style="fill:#263238"></path><path d="M168.27,153.64a21,21,0,0,0,1.35,5.48,3.31,3.31,0,0,1-2.76-.3Z" style="fill:#a02724"></path><path d="M170.16,148.14a.37.37,0,0,1-.2-.07,3.74,3.74,0,0,0-3.27-.54.45.45,0,0,1-.33-.83,4.56,4.56,0,0,1,4.1.63.44.44,0,0,1-.3.81Z" style="fill:#263238"></path><path d="M145.38,133.69c2.54-9.67,22.29-2.13,25.93,5.49,6,12.52-18.29,21.48-15.65,41.2-11.1,3.13-27.21,1.57-27.21,1.57S122,134.82,145.38,133.69Z" style="fill:#263238"></path><path d="M144,154.23c0,5.74-2.73,14.9-7.31,17.7,0,0,2.71,6.27,13,8.58,11.28,2.54,6.49-4.35,6.49-4.35-5.87-2.85-4.82-7.36-2.91-11.39Z" style="fill:#b55b52"></path><path d="M163.81,178.24A84.57,84.57,0,0,0,129.29,170a8.64,8.64,0,0,0-8.65,9.1c1.37,26.29-1.21,36.39-3.25,50.39l38.39,5.05c6.28-26.8,11.06-40.05,12.47-47.41A8.13,8.13,0,0,0,163.81,178.24Z" style="fill:#407BFF"></path><path d="M160.66,198.15a22.07,22.07,0,0,0,3.8,5.61c1.8-7.1,2.92-12.25,3.63-15.83C163.38,187.4,157.28,191,160.66,198.15Z" style="opacity:0.2"></path><path d="M164.62,181.58l.52.51.64.6c.43.4.88.82,1.34,1.21.92.81,1.89,1.58,2.88,2.33a73.14,73.14,0,0,0,6.18,4.22,73.89,73.89,0,0,0,6.64,3.53c1.16.48,2.28,1.05,3.47,1.48l1.76.68c.08,0,.09,0-.18,0-.08,0-.1,0-.23,0a1.5,1.5,0,0,0-.37,0,2.55,2.55,0,0,0-.52.15,2.8,2.8,0,0,0-.6.3,3.32,3.32,0,0,0-1,.94,2.9,2.9,0,0,0-.39.78c-.11.37-.06.46-.06.41a3.06,3.06,0,0,0-.05-1,23.74,23.74,0,0,0-.83-3.33c-.73-2.37-1.7-4.82-2.69-7.27-2-4.88-4.24-9.83-6.46-14.71l4.49-2.67a139.65,139.65,0,0,1,9,14,80.39,80.39,0,0,1,3.82,7.66,32.38,32.38,0,0,1,1.54,4.47,13.24,13.24,0,0,1,.42,3,7.5,7.5,0,0,1-.35,2.41A6.24,6.24,0,0,1,192,204a6.23,6.23,0,0,1-2,1.27,9.06,9.06,0,0,1-1,.28,8.27,8.27,0,0,1-.87.11,6.07,6.07,0,0,1-.74,0,8.71,8.71,0,0,1-2.17-.38l-2.09-.63c-1.41-.39-2.77-.93-4.15-1.42a69.92,69.92,0,0,1-7.95-3.71,62.87,62.87,0,0,1-7.4-4.76q-1.77-1.32-3.46-2.8c-.56-.49-1.12-1-1.67-1.52l-.82-.82c-.29-.3-.52-.54-.89-1Z" style="fill:#b55b52"></path><path d="M179.84,173l1.26-7.83-8.94.61s-.57,7.06,4.71,8.7Z" style="fill:#b55b52"></path><polygon points="178.23 161.69 171.31 160.34 172.16 165.8 181.1 165.19 178.23 161.69" style="fill:#b55b52"></polygon><path d="M158.69,177.05c7.57.21,13.84,6.55,17.51,10.49l-8.11,15.3s-10.9-6.64-13.24-11.37C151.29,184.28,155.83,177,158.69,177.05Z" style="fill:#407BFF"></path><path d="M143.75,143.29c-1.89,9.19-2.89,13,.42,19,5,9,16.68,9.69,21.28,1.34,4.15-7.51,6.55-21.27-1.32-27.53A12.55,12.55,0,0,0,143.75,143.29Z" style="fill:#b55b52"></path><path d="M160.68,152.36c5.6-1.39,10.63-7.93,6.83-13.68C164.36,133.91,154,130.59,148,134s-26,35.86-10,40.5C149.5,177.86,154.08,174.9,160.68,152.36Z" style="fill:#263238"></path><path d="M158.15,149.68a8.52,8.52,0,0,0,1.19,5c1.24,2.11,3,1.76,3.59,0,.54-1.58.55-4.59-1.15-6.15S158.37,147.74,158.15,149.68Z" style="fill:#b55b52"></path><path d="M144.9,254.32l-.31,0c-1.5-.34-2.89.61-4.09,3.16-5.77,12.21,5.6,38.62,13.58,54.47C154.15,294.55,149.2,271.26,144.9,254.32Z" style="opacity:0.2"></path><path d="M164.45,403.94a16.58,16.58,0,0,1-2.95-.5.21.21,0,0,1-.17-.2.22.22,0,0,1,.13-.22c.45-.2,4.39-1.93,5.49-1.22a.71.71,0,0,1,.33.62,1.27,1.27,0,0,1-.49,1.06A3.63,3.63,0,0,1,164.45,403.94Zm-2.19-.78c2.07.46,3.63.45,4.25,0a.83.83,0,0,0,.32-.71.26.26,0,0,0-.12-.24C166.1,401.79,163.88,402.5,162.26,403.16Z" style="fill:#407BFF"></path><path d="M161.54,403.45a.29.29,0,0,1-.13-.05.24.24,0,0,1-.08-.21c0-.17.67-4,2.79-3.9l.19,0c.6.09.76.41.79.66.11,1.08-2.29,3-3.47,3.46Zm2.57-3.71c-1.37-.08-2,2.14-2.25,3.09,1.22-.64,2.86-2.16,2.79-2.81,0,0,0-.21-.41-.27Z" style="fill:#407BFF"></path><polygon points="150.97 404.56 160.29 404.54 164.7 382.18 155.38 382.21 150.97 404.56" style="fill:#b55b52"></polygon><path d="M161.32,402.53H150.66a.78.78,0,0,0-.77.65l-1.43,8.43a1.47,1.47,0,0,0,1.48,1.68c3.71-.06,5.51-.28,10.19-.28,2.89,0,8.84.3,12.82.3s4.29-3.93,2.64-4.29c-7.39-1.6-10.25-3.8-12.7-5.91A2.48,2.48,0,0,0,161.32,402.53Z" style="fill:#263238"></path><polygon points="164.69 382.19 162.25 394.61 153.1 393.75 155.37 382.22 164.69 382.19" style="opacity:0.2"></polygon><path d="M155.21,234.55s32.2,62,26.9,90.29c-5.51,29.4-16,67.22-16,67.22L152.36,391s6.42-38.88,10.09-68.09c4-31.84-42.82-56.59-35.36-92C137.59,232.07,155.21,234.55,155.21,234.55Z" style="fill:#263238"></path><polygon points="168.09 392.7 150.78 391.1 150.65 386.5 169.35 386.44 168.09 392.7" style="fill:#407BFF"></polygon><path d="M116.91,227.09l-1.34,3.13c-.1.24.25.55.69.61l40.45,5.39c.35,0,.61-.09.61-.3l0-3.31c0-.23-.33-.46-.71-.51l-39.06-5.21A.58.58,0,0,0,116.91,227.09Z" style="fill:#fff"></path><path d="M116.91,227.09l-1.34,3.13c-.1.24.25.55.69.61l40.45,5.39c.35,0,.61-.09.61-.3l0-3.31c0-.23-.33-.46-.71-.51l-39.06-5.21A.58.58,0,0,0,116.91,227.09Z" style="fill:#407BFF;opacity:0.6000000000000001"></path><path d="M121.82,232.16l-1-.13c-.21,0-.35-.16-.33-.28l1-4.37c0-.13.22-.21.43-.18l1,.13c.21,0,.35.16.33.28l-1,4.37C122.22,232.11,122,232.19,121.82,232.16Z" style="fill:#263238"></path><path d="M148.12,235.68l-1-.14c-.21,0-.36-.15-.33-.28l.95-4.37c0-.13.22-.21.43-.18l1,.14c.2,0,.35.15.32.28l-.94,4.36C148.52,235.62,148.33,235.7,148.12,235.68Z" style="fill:#263238"></path><path d="M199.64,182.34a1.16,1.16,0,0,1-.9-1.89,24.92,24.92,0,0,0,4.79-21.53,1.16,1.16,0,0,1,2.25-.56,27.25,27.25,0,0,1-5.24,23.55A1.18,1.18,0,0,1,199.64,182.34Z" style="fill:#407BFF"></path><path d="M194.6,178.26a1.19,1.19,0,0,1-.73-.26,1.16,1.16,0,0,1-.17-1.63,18.37,18.37,0,0,0,3.54-15.89,1.16,1.16,0,0,1,2.25-.56,20.71,20.71,0,0,1-4,17.91A1.16,1.16,0,0,1,194.6,178.26Z" style="fill:#407BFF"></path><path d="M189.56,174.18a1.19,1.19,0,0,1-.73-.26,1.17,1.17,0,0,1-.17-1.63A11.81,11.81,0,0,0,191,162a1.15,1.15,0,1,1,2.24-.56,14.1,14.1,0,0,1-2.73,12.28A1.16,1.16,0,0,1,189.56,174.18Z" style="fill:#407BFF"></path><path d="M199.64,182.34a1.16,1.16,0,0,1-.9-1.89,24.92,24.92,0,0,0,4.79-21.53,1.16,1.16,0,0,1,2.25-.56,27.25,27.25,0,0,1-5.24,23.55A1.18,1.18,0,0,1,199.64,182.34Z" style="fill:#407BFF"></path><path d="M189.56,174.18a1.19,1.19,0,0,1-.73-.26,1.17,1.17,0,0,1-.17-1.63A11.81,11.81,0,0,0,191,162a1.15,1.15,0,1,1,2.24-.56,14.1,14.1,0,0,1-2.73,12.28A1.16,1.16,0,0,1,189.56,174.18Z" style="fill:#407BFF"></path></g></svg>